<svg xmlns="http://www.w3.org/2000/svg" width="3600" viewBox="0 0 3600 375" height="375" version="1.0"><defs><clipPath id="a"><path d="M 278 0 L 557.25 0 L 557.25 246 L 278 246 Z M 278 0"/></clipPath></defs><path fill="#0652E9" d="M 187.636719 303.15625 L 187.636719 337.09375 L 34.03125 265.6875 L 34.03125 238.148438 L 187.636719 166.734375 L 187.636719 200.683594 L 71.46875 251.59375 L 71.46875 252.238281 Z M 278.863281 129.019531 L 21.984375 129.019531 C 9.855469 129.019531 0.0234375 138.859375 0.0234375 151 L 0.0234375 352.839844 C 0.0234375 364.972656 9.855469 374.8125 21.984375 374.8125 L 207.554688 374.8125 L 278.863281 129.019531"/><g clip-path="url(#a)"><path fill="#62E1E9" d="M 523.28125 137.753906 L 369.675781 208.199219 L 369.675781 174.253906 L 488.402344 123.34375 L 488.402344 122.699219 L 369.675781 71.78125 L 369.675781 37.839844 L 523.28125 108.289062 Z M 350.179688 0.125 L 278.863281 245.917969 L 535.328125 245.917969 C 547.457031 245.917969 557.289062 236.078125 557.289062 223.9375 L 557.289062 22.097656 C 557.289062 9.964844 547.457031 0.125 535.328125 0.125 L 350.179688 0.125"/></g><g><g><g><path d="M 138.265625 -198.34375 L 138.265625 -25.046875 L 194.203125 -25.046875 L 194.203125 0 L 45.390625 0 L 45.390625 -25.046875 L 106.609375 -25.046875 L 106.609375 -173.296875 L 47.28125 -173.296875 L 47.28125 -198.34375 Z M 113.015625 -291.21875 C 120.046875 -291.21875 125.664062 -289.082031 129.875 -284.8125 C 134.082031 -280.539062 136.1875 -275.328125 136.1875 -269.171875 C 136.1875 -262.765625 134.082031 -257.394531 129.875 -253.0625 C 125.664062 -248.738281 120.046875 -246.578125 113.015625 -246.578125 C 106.359375 -246.578125 100.894531 -248.738281 96.625 -253.0625 C 92.363281 -257.394531 90.234375 -262.765625 90.234375 -269.171875 C 90.234375 -275.328125 92.363281 -280.539062 96.625 -284.8125 C 100.894531 -289.082031 106.359375 -291.21875 113.015625 -291.21875 Z M 113.015625 -291.21875" transform="translate(668.7 295.453)"/></g></g></g><g><g><g><path d="M 168.59375 -202.5 C 174.988281 -202.5 181.109375 -201.113281 186.953125 -198.34375 C 192.796875 -195.582031 197.597656 -190.242188 201.359375 -182.328125 C 205.128906 -174.421875 207.015625 -162.875 207.015625 -147.6875 L 207.015625 0 L 177.625 0 L 177.625 -142.59375 C 177.625 -155.03125 176.867188 -164.007812 175.359375 -169.53125 C 173.859375 -175.050781 169.53125 -177.8125 162.375 -177.8125 C 156.46875 -177.8125 150.59375 -175.957031 144.75 -172.25 C 138.914062 -168.550781 133.238281 -162.492188 127.71875 -154.078125 L 127.71875 0 L 98.140625 0 L 98.140625 -142.59375 C 98.140625 -155.03125 97.382812 -164.007812 95.875 -169.53125 C 94.375 -175.050781 90.039062 -177.8125 82.875 -177.8125 C 76.726562 -177.8125 70.796875 -175.957031 65.078125 -172.25 C 59.367188 -168.550781 53.75 -162.492188 48.21875 -154.078125 L 48.21875 0 L 19.03125 0 L 19.03125 -198.34375 L 43.890625 -198.34375 L 45.765625 -175.375 C 51.171875 -183.03125 57.234375 -189.460938 63.953125 -194.671875 C 70.671875 -199.890625 78.988281 -202.5 88.90625 -202.5 C 96.445312 -202.5 103.539062 -200.707031 110.1875 -197.125 C 116.84375 -193.539062 121.742188 -186.601562 124.890625 -176.3125 C 130.285156 -184.09375 136.375 -190.398438 143.15625 -195.234375 C 149.9375 -200.078125 158.414062 -202.5 168.59375 -202.5 Z M 168.59375 -202.5" transform="translate(894.744 295.453)"/></g></g></g><g><g><g><path d="M 126.578125 -202.5 C 144.160156 -202.5 158.191406 -198.226562 168.671875 -189.6875 C 179.160156 -181.144531 186.726562 -169.117188 191.375 -153.609375 C 196.019531 -138.097656 198.34375 -119.984375 198.34375 -99.265625 C 198.34375 -79.296875 195.546875 -61.492188 189.953125 -45.859375 C 184.367188 -30.234375 175.925781 -17.960938 164.625 -9.046875 C 153.332031 -0.128906 139.082031 4.328125 121.875 4.328125 C 100.144531 4.328125 82.6875 -3.328125 69.5 -18.640625 L 69.5 75.90625 L 37.859375 79.875 L 37.859375 -198.34375 L 64.796875 -198.34375 L 67.4375 -170.65625 C 74.71875 -180.832031 83.410156 -188.679688 93.515625 -194.203125 C 103.628906 -199.734375 114.648438 -202.5 126.578125 -202.5 Z M 119.046875 -177.0625 C 108.117188 -177.0625 98.476562 -173.765625 90.125 -167.171875 C 81.78125 -160.578125 74.90625 -153.265625 69.5 -145.234375 L 69.5 -46.90625 C 74.65625 -39.238281 81.15625 -33.175781 89 -28.71875 C 96.851562 -24.257812 105.488281 -22.03125 114.90625 -22.03125 C 131.351562 -22.03125 143.71875 -28.3125 152 -40.875 C 160.289062 -53.4375 164.4375 -72.960938 164.4375 -99.453125 C 164.4375 -116.785156 162.804688 -131.195312 159.546875 -142.6875 C 156.285156 -154.175781 151.328125 -162.773438 144.671875 -168.484375 C 138.015625 -174.203125 129.472656 -177.0625 119.046875 -177.0625 Z M 119.046875 -177.0625" transform="translate(1120.787 295.453)"/></g></g></g><g><g><g><path d="M 113.390625 -202.5 C 132.109375 -202.5 147.773438 -198.257812 160.390625 -189.78125 C 173.015625 -181.300781 182.492188 -169.335938 188.828125 -153.890625 C 195.171875 -138.453125 198.34375 -120.242188 198.34375 -99.265625 C 198.34375 -79.046875 195.078125 -61.148438 188.546875 -45.578125 C 182.023438 -30.015625 172.453125 -17.804688 159.828125 -8.953125 C 147.210938 -0.0976562 131.609375 4.328125 113.015625 4.328125 C 94.429688 4.328125 78.796875 0.0625 66.109375 -8.46875 C 53.429688 -17.007812 43.859375 -29.035156 37.390625 -44.546875 C 30.921875 -60.054688 27.6875 -78.171875 27.6875 -98.890625 C 27.6875 -119.359375 30.953125 -137.378906 37.484375 -152.953125 C 44.015625 -168.523438 53.648438 -180.675781 66.390625 -189.40625 C 79.140625 -198.132812 94.804688 -202.5 113.390625 -202.5 Z M 113.390625 -176.6875 C 96.316406 -176.6875 83.414062 -170.375 74.6875 -157.75 C 65.957031 -145.132812 61.59375 -125.515625 61.59375 -98.890625 C 61.59375 -72.773438 65.894531 -53.375 74.5 -40.6875 C 83.101562 -28 95.941406 -21.65625 113.015625 -21.65625 C 130.097656 -21.65625 142.9375 -28 151.53125 -40.6875 C 160.132812 -53.375 164.4375 -72.898438 164.4375 -99.265625 C 164.4375 -125.640625 160.164062 -145.132812 151.625 -157.75 C 143.09375 -170.375 130.347656 -176.6875 113.390625 -176.6875 Z M 113.390625 -176.6875" transform="translate(1346.83 295.453)"/></g></g></g><g><g><g><path d="M 39.75 0 L 39.75 -24.296875 L 70.640625 -24.296875 L 70.640625 -174.046875 L 39.75 -174.046875 L 39.75 -198.34375 L 94.75 -198.34375 L 100.59375 -151.453125 C 108.25 -167.773438 117.539062 -180.394531 128.46875 -189.3125 C 139.394531 -198.226562 153.835938 -202.6875 171.796875 -202.6875 C 177.316406 -202.6875 182.242188 -202.273438 186.578125 -201.453125 C 190.910156 -200.640625 195.335938 -199.601562 199.859375 -198.34375 L 190.625 -170.09375 C 186.476562 -171.226562 182.707031 -172.078125 179.3125 -172.640625 C 175.925781 -173.203125 172.035156 -173.484375 167.640625 -173.484375 C 152.453125 -173.484375 139.394531 -168.082031 128.46875 -157.28125 C 117.539062 -146.488281 108.8125 -130.164062 102.28125 -108.3125 L 102.28125 -24.296875 L 142.59375 -24.296875 L 142.59375 0 Z M 169.34375 -131.296875 L 169.34375 -174.421875 L 172.546875 -198.34375 L 199.859375 -198.34375 L 195.34375 -131.296875 Z M 169.34375 -131.296875" transform="translate(1572.872 295.453)"/></g></g></g><g><g><g><path d="M 195.34375 -9.984375 C 188.5625 -5.460938 180.332031 -1.945312 170.65625 0.5625 C 160.988281 3.070312 151.507812 4.328125 142.21875 4.328125 C 120.863281 4.328125 104.410156 -1.257812 92.859375 -12.4375 C 81.304688 -23.613281 75.53125 -37.988281 75.53125 -55.5625 L 75.53125 -173.859375 L 29.953125 -173.859375 L 29.953125 -198.34375 L 75.53125 -198.34375 L 75.53125 -243.375 L 107.1875 -247.140625 L 107.1875 -198.34375 L 175.75 -198.34375 L 171.984375 -173.859375 L 107.1875 -173.859375 L 107.1875 -55.9375 C 107.1875 -44.894531 110.101562 -36.484375 115.9375 -30.703125 C 121.78125 -24.921875 131.484375 -22.03125 145.046875 -22.03125 C 152.453125 -22.03125 159.296875 -22.910156 165.578125 -24.671875 C 171.859375 -26.429688 177.695312 -28.691406 183.09375 -31.453125 Z M 195.34375 -9.984375" transform="translate(1798.915 295.453)"/></g></g></g><g><g><g><path d="M 127.53125 -22.984375 C 137.445312 -22.984375 146.707031 -24.613281 155.3125 -27.875 C 163.914062 -31.144531 171.859375 -35.289062 179.140625 -40.3125 L 194.578125 -19.59375 C 185.910156 -12.175781 175.488281 -6.332031 163.3125 -2.0625 C 151.132812 2.195312 139.207031 4.328125 127.53125 4.328125 C 107.8125 4.328125 91.015625 0.09375 77.140625 -8.375 C 63.265625 -16.851562 52.679688 -28.785156 45.390625 -44.171875 C 38.109375 -59.554688 34.46875 -77.609375 34.46875 -98.328125 C 34.46875 -118.171875 38.140625 -135.972656 45.484375 -151.734375 C 52.835938 -167.492188 63.453125 -179.894531 77.328125 -188.9375 C 91.203125 -197.976562 108.0625 -202.5 127.90625 -202.5 C 140.582031 -202.5 152.476562 -200.582031 163.59375 -196.75 C 174.707031 -192.914062 184.910156 -187.171875 194.203125 -179.515625 L 178.765625 -158.421875 C 170.347656 -164.316406 161.898438 -168.738281 153.421875 -171.6875 C 144.941406 -174.644531 136.3125 -176.125 127.53125 -176.125 C 110.445312 -176.125 96.378906 -169.71875 85.328125 -156.90625 C 74.273438 -144.101562 68.75 -124.578125 68.75 -98.328125 C 68.75 -80.742188 71.289062 -66.394531 76.375 -55.28125 C 81.46875 -44.164062 88.441406 -36.003906 97.296875 -30.796875 C 106.148438 -25.585938 116.226562 -22.984375 127.53125 -22.984375 Z M 127.53125 -22.984375" transform="translate(2251 295.453)"/></g></g></g><g><g><g><path d="M 113.390625 -202.5 C 132.109375 -202.5 147.773438 -198.257812 160.390625 -189.78125 C 173.015625 -181.300781 182.492188 -169.335938 188.828125 -153.890625 C 195.171875 -138.453125 198.34375 -120.242188 198.34375 -99.265625 C 198.34375 -79.046875 195.078125 -61.148438 188.546875 -45.578125 C 182.023438 -30.015625 172.453125 -17.804688 159.828125 -8.953125 C 147.210938 -0.0976562 131.609375 4.328125 113.015625 4.328125 C 94.429688 4.328125 78.796875 0.0625 66.109375 -8.46875 C 53.429688 -17.007812 43.859375 -29.035156 37.390625 -44.546875 C 30.921875 -60.054688 27.6875 -78.171875 27.6875 -98.890625 C 27.6875 -119.359375 30.953125 -137.378906 37.484375 -152.953125 C 44.015625 -168.523438 53.648438 -180.675781 66.390625 -189.40625 C 79.140625 -198.132812 94.804688 -202.5 113.390625 -202.5 Z M 113.390625 -176.6875 C 96.316406 -176.6875 83.414062 -170.375 74.6875 -157.75 C 65.957031 -145.132812 61.59375 -125.515625 61.59375 -98.890625 C 61.59375 -72.773438 65.894531 -53.375 74.5 -40.6875 C 83.101562 -28 95.941406 -21.65625 113.015625 -21.65625 C 130.097656 -21.65625 142.9375 -28 151.53125 -40.6875 C 160.132812 -53.375 164.4375 -72.898438 164.4375 -99.265625 C 164.4375 -125.640625 160.164062 -145.132812 151.625 -157.75 C 143.09375 -170.375 130.347656 -176.6875 113.390625 -176.6875 Z M 113.390625 -176.6875" transform="translate(2477.044 295.453)"/></g></g></g><g><g><g><path d="M 156.53125 -282.171875 L 188.171875 -278.21875 L 188.171875 0 L 160.484375 0 L 157.46875 -26.1875 C 150.0625 -15.632812 141.554688 -7.910156 131.953125 -3.015625 C 122.347656 1.878906 112.082031 4.328125 101.15625 4.328125 C 83.945312 4.328125 69.753906 0 58.578125 -8.65625 C 47.398438 -17.320312 39.113281 -29.410156 33.71875 -44.921875 C 28.320312 -60.429688 25.625 -78.421875 25.625 -98.890625 C 25.625 -118.734375 28.695312 -136.472656 34.84375 -152.109375 C 41 -167.742188 49.882812 -180.050781 61.5 -189.03125 C 73.113281 -198.007812 87.082031 -202.5 103.40625 -202.5 C 114.84375 -202.5 124.890625 -200.519531 133.546875 -196.5625 C 142.210938 -192.601562 149.875 -186.796875 156.53125 -179.140625 Z M 111.703125 -177.0625 C 95.128906 -177.0625 82.382812 -170.59375 73.46875 -157.65625 C 64.550781 -144.726562 60.09375 -125.140625 60.09375 -98.890625 C 60.09375 -81.816406 61.910156 -67.5 65.546875 -55.9375 C 69.191406 -44.382812 74.5625 -35.71875 81.65625 -29.9375 C 88.75 -24.164062 97.445312 -21.28125 107.75 -21.28125 C 119.050781 -21.28125 128.6875 -24.484375 136.65625 -30.890625 C 144.632812 -37.296875 151.257812 -44.515625 156.53125 -52.546875 L 156.53125 -151.640625 C 151.132812 -159.671875 144.601562 -165.914062 136.9375 -170.375 C 129.28125 -174.832031 120.867188 -177.0625 111.703125 -177.0625 Z M 111.703125 -177.0625" transform="translate(2703.087 295.453)"/></g></g></g><g><g><g><path d="M 138.265625 -198.34375 L 138.265625 -25.046875 L 194.203125 -25.046875 L 194.203125 0 L 45.390625 0 L 45.390625 -25.046875 L 106.609375 -25.046875 L 106.609375 -173.296875 L 47.28125 -173.296875 L 47.28125 -198.34375 Z M 113.015625 -291.21875 C 120.046875 -291.21875 125.664062 -289.082031 129.875 -284.8125 C 134.082031 -280.539062 136.1875 -275.328125 136.1875 -269.171875 C 136.1875 -262.765625 134.082031 -257.394531 129.875 -253.0625 C 125.664062 -248.738281 120.046875 -246.578125 113.015625 -246.578125 C 106.359375 -246.578125 100.894531 -248.738281 96.625 -253.0625 C 92.363281 -257.394531 90.234375 -262.765625 90.234375 -269.171875 C 90.234375 -275.328125 92.363281 -280.539062 96.625 -284.8125 C 100.894531 -289.082031 106.359375 -291.21875 113.015625 -291.21875 Z M 113.015625 -291.21875" transform="translate(2929.13 295.453)"/></g></g></g><g><g><g><path d="M 37.859375 0 L 37.859375 -198.34375 L 64.796875 -198.34375 L 67.25 -170.84375 C 75.28125 -181.019531 85.351562 -188.835938 97.46875 -194.296875 C 109.59375 -199.765625 121.367188 -202.5 132.796875 -202.5 C 152.265625 -202.5 166.425781 -197.347656 175.28125 -187.046875 C 184.132812 -176.753906 188.5625 -162.4375 188.5625 -144.09375 L 188.5625 0 L 156.90625 0 L 156.90625 -120.75 C 156.90625 -134.3125 156.148438 -145.265625 154.640625 -153.609375 C 153.140625 -161.960938 150.003906 -168.050781 145.234375 -171.875 C 140.460938 -175.707031 133.050781 -177.625 123 -177.625 C 115.21875 -177.625 107.90625 -175.925781 101.0625 -172.53125 C 94.21875 -169.144531 88.125 -164.910156 82.78125 -159.828125 C 77.445312 -154.742188 73.019531 -149.628906 69.5 -144.484375 L 69.5 0 Z M 37.859375 0" transform="translate(3155.172 295.453)"/></g></g></g><g><g><g><path d="M 199.109375 -219.453125 L 208.90625 -189.6875 C 200.488281 -187.050781 191.503906 -185.414062 181.953125 -184.78125 C 172.410156 -184.15625 162.050781 -183.84375 150.875 -183.84375 C 162.3125 -178.570312 170.914062 -171.757812 176.6875 -163.40625 C 182.46875 -155.050781 185.359375 -145.222656 185.359375 -133.921875 C 185.359375 -120.867188 182.40625 -109.253906 176.5 -99.078125 C 170.59375 -88.910156 162.082031 -80.9375 150.96875 -75.15625 C 139.863281 -69.382812 126.460938 -66.5 110.765625 -66.5 C 104.109375 -66.5 98.550781 -66.8125 94.09375 -67.4375 C 89.632812 -68.0625 85.332031 -69.003906 81.1875 -70.265625 C 78.175781 -68.253906 75.695312 -65.488281 73.75 -61.96875 C 71.800781 -58.457031 70.828125 -54.816406 70.828125 -51.046875 C 70.828125 -46.273438 72.707031 -42.316406 76.46875 -39.171875 C 80.238281 -36.035156 87.210938 -34.46875 97.390625 -34.46875 L 133.171875 -34.46875 C 146.484375 -34.46875 158.441406 -32.082031 169.046875 -27.3125 C 179.660156 -22.539062 188.015625 -16.132812 194.109375 -8.09375 C 200.203125 -0.0625 203.25 9.101562 203.25 19.40625 C 203.25 38.863281 194.988281 53.804688 178.46875 64.234375 C 161.957031 74.660156 138.632812 79.875 108.5 79.875 C 87.40625 79.875 70.765625 77.707031 58.578125 73.375 C 46.398438 69.039062 37.703125 62.445312 32.484375 53.59375 C 27.273438 44.738281 24.671875 33.59375 24.671875 20.15625 L 53.3125 20.15625 C 53.3125 27.8125 54.816406 34.148438 57.828125 39.171875 C 60.835938 44.203125 66.296875 47.941406 74.203125 50.390625 C 82.117188 52.835938 93.488281 54.0625 108.3125 54.0625 C 122.875 54.0625 134.769531 52.835938 144 50.390625 C 153.238281 47.941406 160.082031 44.296875 164.53125 39.453125 C 168.988281 34.617188 171.21875 28.625 171.21875 21.46875 C 171.21875 12.050781 166.945312 4.957031 158.40625 0.1875 C 149.875 -4.582031 139.203125 -6.96875 126.390625 -6.96875 L 90.984375 -6.96875 C 73.898438 -6.96875 61.304688 -10.734375 53.203125 -18.265625 C 45.109375 -25.804688 41.0625 -34.472656 41.0625 -44.265625 C 41.0625 -50.671875 42.910156 -56.882812 46.609375 -62.90625 C 50.316406 -68.9375 55.753906 -74.273438 62.921875 -78.921875 C 51.484375 -84.953125 43.066406 -92.425781 37.671875 -101.34375 C 32.273438 -110.257812 29.578125 -121.054688 29.578125 -133.734375 C 29.578125 -147.171875 32.90625 -159.066406 39.5625 -169.421875 C 46.21875 -179.785156 55.507812 -187.921875 67.4375 -193.828125 C 79.363281 -199.734375 93.113281 -202.6875 108.6875 -202.6875 C 125.382812 -202.8125 138.945312 -203.53125 149.375 -204.84375 C 159.800781 -206.164062 168.75 -208.082031 176.21875 -210.59375 C 183.6875 -213.101562 191.316406 -216.054688 199.109375 -219.453125 Z M 108.6875 -179.515625 C 92.738281 -179.515625 80.960938 -175.210938 73.359375 -166.609375 C 65.765625 -158.003906 61.96875 -147.046875 61.96875 -133.734375 C 61.96875 -120.296875 65.859375 -109.242188 73.640625 -100.578125 C 81.429688 -91.921875 93.363281 -87.59375 109.4375 -87.59375 C 123.5 -87.59375 134.203125 -91.671875 141.546875 -99.828125 C 148.898438 -107.992188 152.578125 -119.359375 152.578125 -133.921875 C 152.578125 -148.867188 148.898438 -160.203125 141.546875 -167.921875 C 134.203125 -175.648438 123.25 -179.515625 108.6875 -179.515625 Z M 108.6875 -179.515625" transform="translate(3381.215 295.453)"/></g></g></g></svg>