<svg xmlns="http://www.w3.org/2000/svg" width="375" viewBox="0 0 375 375" height="375" version="1.0"><defs><clipPath id="a"><path d="M 0 148 L 188 148 L 188 313.40625 L 0 313.40625 Z M 0 148"/></clipPath><clipPath id="b"><path d="M 187 61.40625 L 375 61.40625 L 375 227 L 187 227 Z M 187 61.40625"/></clipPath></defs><g clip-path="url(#a)"><path fill="#0652E9" d="M 126.269531 265.128906 L 126.269531 287.9375 L 22.898438 239.949219 L 22.898438 221.441406 L 126.269531 173.453125 L 126.269531 196.265625 L 48.097656 230.480469 L 48.097656 230.910156 Z M 187.660156 148.105469 L 14.792969 148.105469 C 6.632812 148.105469 0.015625 154.71875 0.015625 162.875 L 0.015625 298.515625 C 0.015625 306.667969 6.632812 313.28125 14.792969 313.28125 L 139.671875 313.28125 L 187.660156 148.105469"/></g><g clip-path="url(#b)"><path fill="#62E1E9" d="M 352.140625 153.976562 L 248.773438 201.316406 L 248.773438 178.503906 L 328.667969 144.292969 L 328.667969 143.859375 L 248.773438 109.640625 L 248.773438 86.835938 L 352.140625 134.175781 Z M 235.652344 61.488281 L 187.660156 226.664062 L 360.25 226.664062 C 368.410156 226.664062 375.027344 220.050781 375.027344 211.894531 L 375.027344 76.253906 C 375.027344 68.101562 368.410156 61.488281 360.25 61.488281 L 235.652344 61.488281"/></g></svg>